<?xml version="1.0" encoding="UTF-8"?>
<!DOCTYPE svg PUBLIC "-//W3C//DTD SVG 1.1//EN" "http://www.w3.org/Graphics/SVG/1.1/DTD/svg11.dtd">
<!-- Creator: CorelDRAW 2020 (64 Bit) -->
<svg xmlns="http://www.w3.org/2000/svg" xml:space="preserve" width="16.9332mm" height="16.9332mm" version="1.1" style="shape-rendering:geometricPrecision; text-rendering:geometricPrecision; image-rendering:optimizeQuality; fill-rule:evenodd; clip-rule:evenodd"
viewBox="0 0 1693.32 1693.32"
 xmlns:xlink="http://www.w3.org/1999/xlink"
 xmlns:xodm="http://www.corel.com/coreldraw/odm/2003">
 <defs>
  <style type="text/css">
   <![CDATA[
    .str0 {stroke:#FEFEFE;stroke-width:20;stroke-miterlimit:22.9256}
    .fil0 {fill:#FEFEFE}
    .fil10 {fill:#897439}
    .fil4 {fill:#9D833C}
    .fil11 {fill:#A38B53}
    .fil2 {fill:#A78647}
    .fil16 {fill:#A98B54}
    .fil3 {fill:#B39D64}
    .fil14 {fill:#B69958}
    .fil12 {fill:#BBA463}
    .fil7 {fill:#BDA35C}
    .fil15 {fill:#C2AB72}
    .fil13 {fill:#C3AB6B}
    .fil1 {fill:#CAA95E}
    .fil8 {fill:#DBC378}
    .fil6 {fill:#E6CA77}
    .fil9 {fill:#E9D687}
    .fil5 {fill:#ECC86E}
   ]]>
  </style>
 </defs>
 <g id="Camada_x0020_1">
  <metadata id="CorelCorpID_0Corel-Layer"/>
  <circle class="fil0 str0" cx="846.66" cy="846.66" r="821.27"/>
  <g id="_2764800198688">
   <g id="_2457442155424">
    <path class="fil1" d="M731.27 990.64c-0.38,0.37 -0.94,0.43 -1.12,1.11l-4.86 3.73c6.28,0.3 6.66,0.6 11.83,3.17 4.68,2.31 3.21,1.84 5.05,3.28 0.36,0.28 1.88,2.21 4.34,4l-7.57 7.2c-0.19,0.25 -0.56,0.84 -0.86,1.26 -8.67,-3.33 -19.36,-6.26 -29.41,-4.81 10.51,9.32 83.74,20.14 94.65,21.21 1.51,23.8 2.6,102.34 -2.83,121.79 -11.47,41.06 -36.07,41.36 -81.96,42.17l-0.34 17.66 257.56 -0.3 0.09 -16.98c-44.56,-0.76 -71.19,-2.38 -81.72,-42.3 -5.22,-19.83 -4.23,-97.59 -2.6,-121.84 27.97,-4.85 55.77,-9.41 82.3,-16.29l55.91 -19.9c7.07,-3.33 9.01,-5.86 15.45,-8.51 -13.84,-2.14 -13.43,4.44 -23.13,4.67 2.65,-5.46 3.95,-4.09 8.2,-8.13 -4.18,-4.04 -8.52,-5.24 -12.13,-8.8 -7.24,-7.16 -0.72,-6.75 -8.78,-12.39l-12.62 14.31c-1.68,-4.39 -0.14,-0.37 -5.29,-2.49 -20.36,17.65 -64.65,32.05 -99.96,32.01 -1.48,-24.64 -3.47,-298.72 2.43,-318.89 10.07,-34.32 39.41,-28.2 74.71,-32.7l-0.33 -23.12c-22.74,-2.4 -233.02,-2.79 -240.45,0.89l-2.09 10.43c-0.14,3.63 0.17,8.39 0.37,12.07 36.2,5.93 64.19,-2.05 74.77,32.34 4.94,16.01 5.12,289.2 2.28,319.03 -30.98,-1.63 -45.14,-8.29 -71.89,-14.88z"/>
    <path class="fil2" d="M279.13 670.95c-8.09,-21.39 -12.37,-46.29 -29.21,-55.68 3.24,-14.99 1.64,-25.57 -1.51,-38.43 -7.16,0.18 -13.93,-1.45 -18.89,2.67 -15.46,12.87 13.64,31.54 18.52,39.62l-7.55 -1.55c13.28,8.68 19.53,11.08 25.91,27.45 4.47,11.5 12.44,29.85 11.04,43.03 -3.08,28.87 -12.13,68.67 -8.68,97.96 6.09,51.71 4.97,103.58 9.05,154.82 0.71,9.07 4.46,7.46 7.38,19.85 2.03,8.69 1.84,14.66 3.14,24.24l-2.54 1.2c-1.07,1.09 -0.34,-2.78 -0.98,2.08 4.89,6.24 7.89,18.55 9.7,28.26 10.76,3.37 -8.77,3.76 1.9,-1.25 0.68,-0.32 0.14,-8.24 6.37,9.38 2.88,8.14 3.95,14.74 5.9,23.62 1.78,8.14 5.11,13.96 7.35,22.14 2.24,8.28 3.99,17.84 5.82,25.91 -6.23,-5.1 -11.44,-10.13 -17.96,-15.66 -9.21,-7.81 -13.43,-6.06 -22.46,-11.57 -9.81,-12.06 2.04,-45.45 -43.92,-67.18 -39.6,-18.72 -46.28,-49.52 -58.77,-53.22 -0.24,0.51 -0.46,0.78 -0.51,1.63 -0.05,0.86 -0.39,1.26 -0.44,1.66l1.06 11.96c6.38,27.83 1.26,39.94 28.02,76.97 3.31,4.57 6.59,6.01 10.91,10.03 16.63,15.45 9.76,16.9 38.45,24.88 16.05,4.45 19.57,-5.78 31.95,1.46 6.01,3.52 18.84,14.72 23.09,19.1 20.97,21.69 21.14,24.8 32.5,51.61 4.35,10.24 6.18,23.04 12.34,29.75 7.97,8.69 7.43,17.66 12.93,29.05 25.23,52.36 67.62,96.39 82.41,126.55 -4.47,-1.44 -16.82,-9.24 -22.79,-11.85 -12.22,-5.37 -17.98,-3.6 -24.52,-12.97 -11.06,-15.86 -0.47,-23.07 -27.42,-46.33 -6.96,-6 -11.83,-12.83 -18.03,-17.71 -17.65,-13.92 -43.65,-1.44 -63.01,-8.4 -4.13,-1.49 -9.21,-3.95 -13.71,-5.31 -4.34,-1.3 -9.7,-2.63 -13.91,-3.16 0.7,5.4 18.64,25.23 22.91,32.02 14.95,23.88 27.79,45.96 50.86,62.77 11.92,8.67 20.04,18.04 38.51,17.61 8.25,-0.2 15.43,1.26 20.62,-2.31 9.59,-6.57 5.05,-10.05 18.43,-4.6 13.96,5.69 30.36,7.24 42.96,13.99 19.95,10.7 40.75,38.89 58.08,53.15l-23.07 -1.53c0.52,0.44 1.31,0.29 1.6,1.05l4.85 2.4c2.07,0.76 4.47,1.25 6.76,1.68 24.02,4.46 15.42,1.92 33.97,16.53 13.29,10.46 9.61,5.12 24.46,11.59 9.35,4.07 12.62,12.08 22.79,10.31l-116.89 -97.39c-14.67,-11.02 -19.53,-37.48 -13.15,-59.21 2.58,-3.31 21.2,-4.48 29.02,-22.51 12.57,-29.01 23.32,-25.73 13.33,-86.03 -1.74,-10.54 -7.45,-36.38 -12.04,-42.63 -10.91,12.33 -17.51,22.86 -30,35.03 -38.79,37.8 -24.09,63.02 -17.73,96 2.97,15.41 8.2,32.19 6.91,47.81 -0.05,0.53 -0.09,1.15 -0.16,1.66l-0.8 3.34c-0.09,0.4 -0.27,1.15 -0.54,1.66 -2.48,-5.42 -39.27,-50.1 -57.03,-82.06 -8.55,-15.41 -15,-30.63 -23.16,-46.3 -7.63,-14.65 -19.92,-36.37 -8.94,-56.33 0.47,-0.09 1.21,-0.4 1.42,0.1 0.22,0.5 1.14,0.08 1.45,0.11 0.32,0.03 1.11,0.12 1.51,0.14 11.77,0.97 24.55,-3.33 33.53,-10.71 9.2,-7.56 20.77,-15.36 24.77,-28.06 5.59,-17.75 9.06,-81.39 0.12,-93.75l-15.94 4.42c-5.25,3.81 -7.14,8.65 -14.23,13.01 -15.42,9.46 -19.58,10.76 -26.81,28.12 -11.54,27.67 -3.61,74.07 -17.75,94.53 -9.41,-28.46 -33.61,-75.22 -32.14,-107.82 0.69,-15.18 8.39,-45.81 20.48,-49.9 10.57,-3.6 15.95,-0.47 17.18,-17.24 1.32,-18.23 -1.04,-21.82 -16.89,-21.99 -14.45,23.38 -4.37,29.27 -9.33,42.74l-16.76 41.04c-11.84,-19.01 -18.43,-49.85 -21.58,-72.14 -2.33,-16.52 -7.13,-21.19 2.32,-36.33 26.43,-42.31 32.65,-3.51 64.82,-17.14 25.76,-10.92 29.87,-36.07 35.99,-61.01 3.22,-13.14 11.07,-24.04 12.52,-34.75 -11.42,-7.02 -7.4,-3.42 -19.53,0.44 -40.01,12.75 -63.81,2.99 -83.63,63.68 -6.53,20.01 -8.86,23.78 -18.47,40.23 -5.2,-12.1 -17.3,-111.69 -8.11,-125.48 6.02,-9.05 16.49,-18.82 25.15,-23.32 9.65,1.48 5.31,4.41 16.39,3.85 7.13,-0.35 12.28,-3.73 19.07,-3.49 19.26,0.71 20.44,5.12 33.19,-9.6 15.69,-18.11 12.11,-32.93 22.63,-46.68 4.19,-5.48 6.18,-8.22 7.52,-16.31 -23.11,1.1 -45.04,-4.73 -64.33,9.82 -4.04,3.06 -3.52,2.99 -7.53,5.27 -16.4,9.29 -18.13,24.91 -29.02,38.15l-11.85 15.5c-6.85,6.76 -7.34,5.01 -13.09,13.7 -1.4,-24.24 4.31,-111.58 22.19,-128.67 10.72,-10.26 24.97,-7.2 38.34,-11.39l-2.97 -1.27c-11.13,-2.66 -22.46,1.87 -32.96,4.64 -0.19,-8.02 5.06,-29.01 8.6,-33.35 6.07,-7.39 20.82,-7.92 32.47,-9.83 17.07,-2.78 17.02,5.08 32.11,8.63 11.75,2.78 25.62,4.36 39.05,3.48 10.57,-13.76 11.19,-5.23 16.5,-29.65 4.64,-21.28 13.78,-12.38 14.67,-33.66 -8.83,0.31 -12.37,-1.66 -21.21,-1.01 -7.66,0.56 -12.98,3.21 -19.44,4.57 -13.25,2.77 -21.11,4.68 -32.23,11.93 -11.64,7.58 -13.29,19.94 -20.66,23.65 -9.3,4.69 -25.1,4.93 -35.19,9.63 9.12,-41.4 35.28,-63.9 52.32,-99.87 3.27,-6.93 4.48,-10.44 8.3,-16.98 3.43,-5.86 7.75,-10.58 4.95,-16.23 -8.36,4.99 -15.76,23.78 -21.32,33.6 -7.59,13.42 -15.88,21.4 -23.37,33.45 -8.52,13.74 -29.24,70.54 -35.2,75.64 -15.18,-31.82 28.56,-26.1 3.2,-114.02 -8.5,-29.48 -23.42,-51.21 -29.77,-73.65 -1.29,-4.57 -1.91,-9.64 -2.79,-13.92 -1.85,-9.11 -0.57,-8.99 -6.42,-12.64 -0.3,0.48 -0.64,0.7 -0.72,1.54l-1.74 38.29c-3.9,33.34 -8.45,83.31 9.91,110.73 9.19,13.71 9.01,6.11 16.07,25.93 6.09,17.15 12.42,57.3 4.97,75.18 -3.25,7.8 -4.32,4.58 -6.72,13.92 -1.82,7.13 -3.08,13.01 -5.49,17.89z"/>
    <path class="fil3" d="M1329.13 565.27c-2.39,3.06 -2.81,-1.77 0.85,6.07l6.23 13.63c0.76,5.42 0.48,4.13 -3.5,9.07l3.8 0.65c12.73,0.33 32.29,-0.65 43.08,5.3 9.96,5.5 14.77,24.48 14.2,37.3 -13.22,-4.68 -19.84,-5.11 -35.61,-5.23 6.68,9.49 24.15,1.36 37.29,12.92 18.43,16.25 22.91,104.21 23.04,128.8 -2.44,-7.7 -5.8,-7.49 -11.32,-12.3 -11.58,-10.09 -20.96,-33.8 -31.33,-46.39 -3.75,-4.55 -25.04,-18.34 -32.59,-20.26 -15.97,-4.05 -32.09,-2.23 -49.76,-1.77 3.58,13.28 11.28,13.21 14.27,29.06 2.64,13.97 7.5,21.71 14.94,31.48 9.07,11.91 14.66,12.54 32.17,11.22 8.93,-0.69 9.81,2.07 19.11,3.16 18.4,2.19 10.55,-9.78 23.98,0.81 14.35,11.3 6.46,5.12 17.28,18.2 7.67,9.24 4.78,22.45 3.26,40.82 -2.47,30.33 -5.26,56.57 -9.22,83.75 -17.21,-18.19 -20.2,-56.58 -37.53,-76.68 -15.2,-17.63 -19.34,-10.17 -37.77,-18.88 -11.01,-5.21 -11.63,-2.83 -23.77,-5.65 -4.78,-1.12 -29.79,-16.68 -16.17,14.12 12.48,28.22 8.49,62.31 39.19,78.35 14.88,7.79 23.46,3 39.22,-0.57 16.12,-3.65 19.98,7.65 26.2,17.19 10.43,15.99 7.29,17.52 4.44,36.54 -3.73,24.9 -11.47,53.66 -21.59,72.87 -3.87,-7.68 -7.84,-20.4 -12.25,-29.66 -10.93,-22.96 -1.85,-13.11 -5.32,-32.35 -7.45,-41.14 -37.96,-13.55 -20.27,15.16 10.71,5.26 12.35,-1.62 19.23,8.94 34.29,52.64 -6.81,107.18 -16.85,149.04 -2.71,16.18 -0.79,6.17 2.44,9.96 2.31,-9.04 8.13,-26.11 14.05,-32.61 4.71,-5.17 6.62,-5.69 11.25,-11.81 4.19,-5.56 5.68,-7.71 10.78,-12.38 39.23,-35.86 19,-2.4 67.99,-22.43 15.04,-6.15 38.44,-33.69 46.16,-48.61 3.24,-6.23 11.15,-26.23 12.73,-33.44 1.25,-5.77 6.67,-35.55 2.54,-42.22 -16.32,7.76 -16.74,32.86 -57.89,54.12 -17.88,9.24 -19.1,6.47 -31.13,26.05 -8.77,14.27 -8.91,25.47 -14.1,42.43 -10.88,6.04 -11.14,2.25 -22.11,11.46 -6.73,5.67 -11.73,9.89 -17.77,15.86l16.93 -65.24c2.57,-8.03 6.14,-14.14 7.34,-22.4 0.29,3.2 0.23,6.78 3.01,10.36 1.92,-16.68 5.52,-25.13 12.57,-36.25 -1.72,-0.74 1.6,-4.13 -6.41,4.49 4.47,-46.67 9.12,-32.82 10.59,-44.52l3.02 -54.68c1.07,-31.78 3.48,-71.8 6.37,-103.87 3.03,-33.62 -7.95,-68.3 -9.01,-100.04 -0.33,-10.08 8.35,-32.75 12.72,-41.87 8.69,-18.14 17.39,-16.16 28.69,-27.81 -5.54,1.28 -6.42,2.53 -11.39,3.65 6.92,-6.8 16.87,-12.91 20.9,-23.9 8.14,-22.22 -14.43,-16.92 -21.72,-18.85 -6.33,10.38 -6.76,24.41 -2.49,39.28 -16.88,11.39 -21.04,33.87 -29.06,54.02 -3.45,-7.13 -2.91,-8.22 -4.65,-15.77 -2.42,-10.62 -2.7,-5.53 -6.67,-14.03 -7.81,-16.76 -1.2,-55.72 4.37,-73.32 10.5,-33.19 40.73,-26.96 26.94,-136.55 -3.06,-24.26 3.37,-33.14 -3.16,-42.8 -6.5,4.03 -5.17,2.71 -6.93,11.67 -10.54,53.85 -40.77,70.72 -40.14,147.6 0.24,29.63 19.28,23.24 11.74,55.09 -9.25,-5.97 -9.7,-20.93 -17.78,-37.68 -31.39,-65.18 -18.98,-32.28 -41.46,-70.16 -5.93,-9.98 -13.74,-30.19 -22.72,-33.61 0.72,8.55 10.73,24.33 15.01,32.87 2.81,5.6 4.88,10.82 8.09,17.2 8.5,16.84 33.71,41.54 43.58,82.6 -19.51,-10.53 -32.26,-0.93 -41.1,-15.59 -6.12,-10.15 -2.63,-8.55 -9.05,-10.98z"/>
    <path class="fil4" d="M708.67 1009.58c10.05,-1.45 20.74,1.48 29.41,4.81 0.3,-0.42 0.67,-1.01 0.86,-1.26l7.57 -7.2c-2.46,-1.79 -3.98,-3.72 -4.34,-4 -1.84,-1.44 -0.37,-0.97 -5.05,-3.28 -5.17,-2.57 -5.55,-2.87 -11.83,-3.17l4.86 -3.73c0.18,-0.68 0.74,-0.74 1.12,-1.11 -35,-19.13 -53.26,-33.93 -60.14,-81.71 -6.23,-43.26 -3.39,-92.08 -5.76,-136.35 -7.57,-141.81 -38.93,-142.91 -144.73,-141.23l-0.15 22.42c23.42,0.05 43.14,-5.29 52.05,15.07 20.82,47.53 -22.65,196.46 48.93,291.78 9.45,12.58 20.98,22.83 36.5,30.86 10,5.18 38.88,18.07 50.7,18.1z"/>
    <path class="fil5" d="M991.43 973.46c5.15,2.12 3.61,-1.9 5.29,2.49l12.62 -14.31c8.06,5.64 1.54,5.23 8.78,12.39 3.61,3.56 7.95,4.76 12.13,8.8 -4.25,4.04 -5.55,2.67 -8.2,8.13 9.7,-0.23 9.29,-6.81 23.13,-4.67 46.22,-23.64 67.96,-108.64 70.71,-159.23 2.43,-44.58 -6.42,-141.33 8.86,-164.06 9.68,-14.41 28.23,-9.57 47.95,-10.64l0.31 -20.02c-98.22,-4.66 -132.11,1.05 -142.18,115.15 -4.63,52.35 0.25,142.49 -12.92,185.19 -7.82,25.28 -15.28,25.89 -26.48,40.78z"/>
    <path class="fil6" d="M1344.59 1326.05l-9.82 0.23 8.06 -20.32c-4.81,-22.93 0.09,-24.84 0.46,-51.21 -7.86,-4.19 -6.88,5.34 -6.48,-2.66 0.23,-4.77 4.61,-4.03 8.37,-5.06 9.01,-2.5 12.41,-4.64 19.52,-9.18 14.33,1.01 12.46,5.88 25.93,-0.58 -20.09,0.82 -43.16,-3.77 -56.81,6.97 -16.85,13.25 -35.41,31.61 -40.97,51.85 -6.61,24.12 -8.64,16.04 -32.95,27.67 -6.2,2.97 -13.37,8.11 -18.49,9.57l27.97 -44.09c10.18,-11.91 22.19,-27.12 31.48,-42.16 25.59,-41.34 19.19,-37.94 30.64,-61.96 8.48,-17.83 -0.86,11.21 17,-35.18 -3.23,-3.79 -5.15,6.22 -2.44,-9.96 -2.66,2.17 -3.34,-3.16 -2.93,3.44 -2,-7.33 -5.37,-12.8 -6.64,-20.62 -4.73,-28.93 6.83,-77.23 -34.77,-100.39 -14.77,-8.22 -11.09,-16.99 -28.04,-17.63 -18.45,-0.68 -7.74,84.15 -2.81,94.85 3.95,8.54 16.73,19.15 24.91,25.67 17.37,13.86 24.88,11.09 36.57,9.22 8.24,29.01 1.45,35.64 -9.44,56.79 -8.24,16 -14.25,30.86 -22.76,46.57 -7.43,13.69 -45.4,74.83 -59.17,79.24 -0.64,-56.38 23.01,-75.96 12.97,-107.92 -8.49,-27.04 -28.81,-42.62 -50.01,-67.73l-3.25 -4.53c-10.84,17.42 -17.23,63.48 -14.14,89.31 1.83,15.28 20.92,46.01 28.17,51.59 11.16,8.64 16.94,2.32 18.21,18.22 0.17,2.19 -0.08,6.08 -0.13,8.45 -0.29,12.93 1.08,19.18 -5.93,30.36 -11.6,18.52 -116.12,99.78 -120.84,106.17 7.17,-2.31 9.2,-5.75 16.03,-9.02 6.23,-2.98 11.84,-2.44 17.56,-5.69 1.55,-0.89 30.78,-22.36 37.88,-31.4l41.63 -40.4c3.46,-2.93 3.5,-2.63 7.42,-5.21 3.7,-2.44 10.16,-6.76 14.98,-8.16 7.46,-2.15 11.82,-1.19 19.26,-3.77 46,-16.01 6.92,2.36 51.4,2.78 17.66,0.16 23.19,-5.57 32.4,-14.12z"/>
    <path class="fil7" d="M1390.63 1237.27c-13.47,6.46 -11.6,1.59 -25.93,0.58 -7.11,4.54 -10.51,6.68 -19.52,9.18 -3.76,1.03 -8.14,0.29 -8.37,5.06 -0.4,8 -1.38,-1.53 6.48,2.66 -0.37,26.37 -5.27,28.28 -0.46,51.21l-8.06 20.32 9.82 -0.23c17.59,-10.42 31.65,-28.26 44.09,-45.87l24.46 -34.71c10.42,-16.38 9.85,-8.85 12.07,-18.26 -16.39,1.4 -25.38,8.63 -34.58,10.06z"/>
    <path class="fil8" d="M1336.51 594.69l-3.8 -0.65c3.98,-4.94 4.26,-3.65 3.5,-9.07l-6.23 -13.63c-3.66,-7.84 -3.24,-3.01 -0.85,-6.07 -7.76,-17.65 -53.83,-23.24 -77.29,-21.24 -1.61,20.75 9.04,10.65 13.47,31.32 1.21,5.66 1.98,13.8 4.85,18.58l3.94 4.44c0.31,0.31 0.77,0.74 1.09,1.04l3.15 3.08c0.29,0.27 0.77,0.7 1.05,0.95 8.29,7.16 49.28,3.74 57.12,-8.75z"/>
    <path class="fil9" d="M1228.32 1405.05c12.3,5.64 18.19,8.86 29.05,-1.75 5.26,-5.13 16.15,-18.77 11.99,-30.56 -5.67,-16.1 -46.68,-9.71 -41.04,32.31z"/>
    <path class="fil10" d="M422.17 1382.35c1.43,8.11 13.84,22.98 19.49,25.38 11.32,4.8 24.52,1.17 23.36,-14.63 -2.42,-32.72 -47.57,-37.97 -42.85,-10.75z"/>
    <path class="fil11" d="M296.76 1167.87c2.15,24.42 28.65,27.26 32.9,24.85 5.14,-2.92 3.89,-12.64 2.82,-18.33 -5.45,-28.69 -38.26,-35.49 -35.72,-6.52z"/>
    <path class="fil12" d="M1361.14 1194.92c9.3,-1.78 24.01,-4.31 29.62,-11.58 5.28,-6.84 8.62,-23.23 1.39,-30.51 -10.43,-10.47 -35.69,-0.23 -31.01,42.09z"/>
    <path class="fil13" d="M244.89 769.3c6.77,-20.93 -2.74,-47.92 -25.13,-44.07 -8.66,20.81 -1.6,48 25.13,44.07z"/>
    <path class="fil9" d="M1101.32 969.11c-22.52,6.87 -14.02,43.34 12.58,34.87 19.59,-6.24 11.43,-42.2 -12.58,-34.87z"/>
    <path class="fil11" d="M1462.13 726.34c-9.64,3.67 -13.54,7.68 -15.67,23.19 -4.94,35.86 26.59,20.69 29.48,-4.54 1.69,-14.7 0.12,-23.94 -13.81,-18.65z"/>
    <path class="fil14" d="M797.68 1327.67c12.9,-22.47 -19.96,-38.67 -30.51,-19.2 -11.83,21.84 18.08,40.84 30.51,19.2z"/>
    <path class="fil15" d="M1329.57 647.9c23.61,1.17 32.9,-22.62 17.14,-34.16 -24.65,-18.05 -22.19,19.94 -17.14,34.16z"/>
    <path class="fil16" d="M361.68 611c-22.07,-4.28 -31.34,22.43 -13.35,34.14 22.57,14.67 22.58,-20.05 13.35,-34.14z"/>
   </g>
  </g>
 </g>
</svg>
